<svg version="1.1" width="32" height="32" viewBox="0 0 32 32" xmlns="http://www.w3.org/2000/svg">
 <defs>
  <style id="current-color-scheme" type="text/css">.ColorScheme-Text {
        color:#232629;
      }</style>
 </defs>
 <path class="ColorScheme-Text" fill-rule="evenodd" d="M16 5.5a10.5 10.5 0 1 0 0 21c2.891 0 5.523-1.258 7.436-3.054 1.921-1.805 3.064-4.102 3.064-6.126a.5.5 0 0 1 1 0c0 2.375-1.32 4.92-3.38 6.854C22.053 26.118 19.185 27.5 16 27.5a11.5 11.5 0 1 1 0-23c3.458 0 6.316 1.612 8.287 3.19A19.145 19.145 0 0 1 26.5 9.773V5a.5.5 0 0 1 1 0v6.16a.5.5 0 0 1-.5.5h-5.28a.5.5 0 0 1 0-1h4.23a18.139 18.139 0 0 0-2.288-2.19C21.785 6.968 19.143 5.5 16 5.5Z" clip-rule="evenodd" fill="currentColor"/>
</svg>
