<svg version="1.1" width="32" height="32" viewBox="0 0 32 32" xmlns="http://www.w3.org/2000/svg">
 <defs>
  <style id="current-color-scheme" type="text/css">.ColorScheme-Text {
        color:#232629;
      }</style>
 </defs>
 <path class="ColorScheme-Text" fill-rule="evenodd" d="M16 4.5a11.5 11.5 0 1 0 0 23 11.5 11.5 0 0 0 0-23ZM7.161 7.161A12.5 12.5 0 1 1 24.84 24.84 12.5 12.5 0 0 1 7.16 7.16Z" clip-rule="evenodd" fill="currentColor"/>
  <path class="ColorScheme-Text" fill-rule="evenodd" d="M16 10.5a.5.5 0 0 1 .5.5v9.78l4.144-4.208a.5.5 0 0 1 .712.702l-5 5.077a.5.5 0 0 1-.712 0l-5-5.077a.5.5 0 1 1 .712-.702L15.5 20.78V11a.5.5 0 0 1 .5-.5Z" clip-rule="evenodd" fill="currentColor"/>
</svg>
