<?xml version="1.0" encoding="UTF-8" standalone="no"?>
<!-- Uploaded to: SVG Repo, www.svgrepo.com, Generator: SVG Repo Mixer Tools -->

<svg
   height="799.99994"
   width="799.99994"
   version="1.1"
   id="Capa_1"
   viewBox="0 0 303.59698 303.59698"
   xml:space="preserve"
   sodipodi:docname="arrow_forward_curve.svg"
   xmlns:inkscape="http://www.inkscape.org/namespaces/inkscape"
   xmlns:sodipodi="http://sodipodi.sourceforge.net/DTD/sodipodi-0.dtd"
   xmlns="http://www.w3.org/2000/svg"
   xmlns:svg="http://www.w3.org/2000/svg"><defs
   id="defs1" /><sodipodi:namedview
   id="namedview1"
   pagecolor="#ffffff"
   bordercolor="#000000"
   borderopacity="0.25"
   inkscape:showpageshadow="2"
   inkscape:pageopacity="0.0"
   inkscape:pagecheckerboard="0"
   inkscape:deskcolor="#d1d1d1" />
<path
   style="fill:#231f20"
   d="m 245.72744,268.881 c -25.982,19.891 -56.887,30.403 -89.369,30.402 h -0.002 c -6.545,0 -13.176,-0.44 -19.707,-1.308 -39.055003,-5.187 -73.754003,-25.272 -97.702003,-56.557 -14.571,-19.033 -24.367,-41.513 -28.329,-65.01 -0.6890003,-4.084 2.064,-7.954 6.148,-8.643 l 19.721,-3.326 c 1.964,-0.33 3.974,0.131 5.595,1.284 1.621,1.153 2.717,2.902 3.048,4.864 3.019,17.896 10.49,35.032 21.608,49.555 18.266,23.861 44.730003,39.181 74.521003,43.137 4.994,0.664 10.061,1 15.058,1 24.757,0 48.317,-8.019 68.137,-23.191 23.86,-18.266 39.18,-44.73 43.136,-74.519 3.957,-29.787 -3.924,-59.333 -22.189,-83.194 -21.441,-28.007 -54.051,-44.069 -89.469,-44.069 -24.886,0 -48.484,7.996 -68.245003,23.122 -6.55,5.014 -12.43,10.615 -17.626,16.754 l 36.934003,-6.52 c 1.956,-0.347 3.973,0.101 5.604,1.241 1.631,1.141 2.739,2.882 3.085,4.841 l 3.477,19.695 c 0.72,4.079 -2.003,7.969 -6.081,8.689 l -88.630003,15.647 c -0.434,0.077 -0.869,0.114 -1.304,0.114 -1.528,0 -3.031,-0.467 -4.301,-1.355 -1.63,-1.141 -2.739,-2.882 -3.084,-4.841 L 0.11543675,28.063 c -0.721,-4.079 2.00199995,-7.969 6.08099995,-8.69 L 25.891437,15.896 c 4.085,-0.723 7.97,2.003 8.689,6.082 l 6.585,37.3 c 7.387,-9.162 15.87,-17.463 25.248,-24.642 25.914,-19.838 56.860003,-30.324 89.495003,-30.324 46.423,0 89.171,21.063 117.284,57.787 23.947,31.286 34.279,70.024 29.092,109.079 -5.188,39.058 -25.274,73.755 -56.557,97.703 z"
   id="path1" />
</svg>
