<svg version="1.1" width="32" height="32" viewBox="0 0 32 32" xmlns="http://www.w3.org/2000/svg">
 <defs>
  <style id="current-color-scheme" type="text/css">.ColorScheme-Text {
        color:#232629;
      }</style>
 </defs>
 <path class="ColorScheme-Text" d="M15.498 5a8.503 8.503 0 0 0-8.5 8.5v5.326l-1.52 3.803A1 1 0 0 0 6.407 24h5.63a3.5 3.5 0 0 0 6.925 0h5.635a1 1 0 0 0 .928-1.371l-1.526-3.817V13.5c0-4.692-3.808-8.5-8.5-8.5Zm0 1c4.155 0 7.5 3.345 7.5 7.5v5.506L24.596 23H6.406L8 19.02V13.5C8 9.345 11.344 6 15.5 6Zm-2.443 18h4.886a2.5 2.5 0 0 1-2.443 2 2.5 2.5 0 0 1-2.443-2Z" fill="currentColor"/>
</svg>
