<!DOCTYPE svg PUBLIC "-//W3C//DTD SVG 1.1//EN" "http://www.w3.org/Graphics/SVG/1.1/DTD/svg11.dtd">
<!-- Uploaded to: SVG Repo, www.svgrepo.com, Transformed by: SVG Repo Mixer Tools -->
<svg fill="#000000" width="184px" height="184px" viewBox="-1.68 -1.68 27.36 27.36" xmlns="http://www.w3.org/2000/svg" stroke="#000000" stroke-width="0.00024000000000000003">
<g id="SVGRepo_bgCarrier" stroke-width="0"/>
<g id="SVGRepo_tracerCarrier" stroke-linecap="round" stroke-linejoin="round" stroke="#CCCCCC" stroke-width="0.24000000000000005"/>
<g id="SVGRepo_iconCarrier">
<path d="M20,23a1,1,0,0,0,1-1V2a1,1,0,0,0-1-1H6A3,3,0,0,0,3,4V20a3,3,0,0,0,3,3ZM5,4A1,1,0,0,1,6,3H19V16H5ZM5,20V18H19v3H6A1,1,0,0,1,5,20Z"/>
</g>
</svg>