<svg version="1.1" width="32" height="32" viewBox="0 0 32 32" xmlns="http://www.w3.org/2000/svg">
 <defs>
  <style id="current-color-scheme" type="text/css">.ColorScheme-Text {
        color:#232629;
      }</style>
 </defs>
 <path class="ColorScheme-Text" fill-rule="evenodd" d="M6 7c0-1.662 1.338-3 3-3h10l7 7v14.5a2.5 2.5 0 0 1-2.5 2.5H9c-1.662 0-3-1.338-3-3V7Zm17.5 20a1.5 1.5 0 0 0 1.5-1.5V12h-4c-1.662 0-3-1.338-3-3V5H9c-1.108 0-2 .892-2 2v18c0 1.108.892 2 2 2h14.5Zm1.086-16L19 5.414V9c0 1.108.892 2 2 2h3.586Z" clip-rule="evenodd" fill="currentColor"/>
</svg>
