<svg version="1.1" viewBox="0 0 32 32" xmlns="http://www.w3.org/2000/svg">
 <defs>
  <style id="current-color-scheme" type="text/css">.ColorScheme-Text {
        color:#232629;
      }</style>
 </defs>
 <path class="ColorScheme-Text" ill-rule="evenodd" d="M6 7c0-1.662 1.338-3 3-3h10l7 7v6h-1v-5h-4c-1.662 0-3-1.338-3-3V5H9c-1.108 0-2 .892-2 2v18c0 1.108.892 2 2 2h6v1H9c-1.662 0-3-1.338-3-3V7Zm18.586 4L19 5.414V9c0 1.108.892 2 2 2h3.586Z" clip-rule="evenodd" fill="currentColor"/>
 <path class="ColorScheme-Text" fill-rule="evenodd" d="M20.5 28a5.5 5.5 0 1 0 0-11 5.5 5.5 0 0 0 0 11Zm-.5-6v-3h1v3h3v1h-3v3h-1v-3h-3v-1h3Z" clip-rule="evenodd" fill="currentColor"/>
</svg>
