<svg version="1.1" width="32" height="32" viewBox="0 0 32 32" xmlns="http://www.w3.org/2000/svg">
 <defs>
  <style id="current-color-scheme" type="text/css">.ColorScheme-Text {
        color:#232629;
      }</style>
 </defs>

 <path class="ColorScheme-Text" fill-rule="evenodd" d="M3 6c0-1.09.91-2 2-2h9.076c.471 0 .908-.001 1.371.23.418.21.676.472 1.054.855l.206.208L18.414 7H27c1.108 0 2 .892 2 2v7h-1V9c0-.554-.446-1-1-1h-8.586l-1.707 1.707a39.58 39.58 0 0 0-.206.208c-.378.384-.637.646-1.054.855-.463.231-.9.23-1.37.23H4v14c0 .554.446 1 1 1h13v1H5c-1.108 0-2-.892-2-2V6Zm11-1H5c-.554 0-1 .446-1 1v4h10c.425 0 .67 0 .887-.077.294-.104.538-.348 1.113-.923l1.5-1.5L16 6c-.575-.575-.82-.82-1.113-.923C14.669 5 14.425 5 14 5Z" clip-rule="evenodd" fill="currentColor"/>

 <path class="ColorScheme-Text" fill-rule="evenodd" d="M30 22.5a5.5 5.5 0 1 1-11 0 5.5 5.5 0 0 1 11 0ZM24 19v3h-3v1h3v3h1v-3h3v-1h-3v-3h-1Z" clip-rule="evenodd" fill="currentColor"/>

</svg>
