<svg version="1.1" width="32" height="32" viewBox="0 0 32 32" xmlns="http://www.w3.org/2000/svg">
 <defs>
  <style id="current-color-scheme" type="text/css">.ColorScheme-Text {
        color:#232629;
      }</style>
 </defs>
 <path class="ColorScheme-Text" fill-rule="evenodd" d="M7.999 5.834a2.167 2.167 0 0 0-2.167 2.167v4a.5.5 0 0 1-1 0V8a3.167 3.167 0 0 1 3.167-3.167h4a.5.5 0 0 1 0 1h-4Zm11.5-.5a.5.5 0 0 1 .5-.5h4a3.167 3.167 0 0 1 3.166 3.167v4a.5.5 0 0 1-1 0V8A2.167 2.167 0 0 0 24 5.834h-4a.5.5 0 0 1-.5-.5ZM5.332 19.501a.5.5 0 0 1 .5.5v4a2.167 2.167 0 0 0 2.167 2.166h4a.5.5 0 0 1 0 1h-4a3.167 3.167 0 0 1-3.167-3.166v-4a.5.5 0 0 1 .5-.5Zm21.333 0a.5.5 0 0 1 .5.5v4A3.167 3.167 0 0 1 24 27.167h-4a.5.5 0 1 1 0-1h4a2.167 2.167 0 0 0 2.166-2.166v-4a.5.5 0 0 1 .5-.5Z" clip-rule="evenodd" fill="currentColor"/>
</svg>
