<svg version="1.1" width="32" height="32" viewBox="0 0 32 32" xmlns="http://www.w3.org/2000/svg">
 <defs>
  <style id="current-color-scheme" type="text/css">.ColorScheme-Text {
        color:#232629;
      }</style>
 </defs>
 <path class="ColorScheme-Text" fill-rule="evenodd" d="M4.428 2.22a1.833 1.833 0 0 0-2.213 2.212l4.431 16.864a1.834 1.834 0 0 0 1.421 1.362l8.963 1.793 2.554 3.827a.5.5 0 0 0 .77.076l8-8a.5.5 0 0 0-.077-.77l-3.83-2.55-1.793-8.963a1.833 1.833 0 0 0-1.362-1.421L4.438 2.222l-.01-.003Zm8.378 9.883L3.88 3.176a.833.833 0 0 1 .31.014l16.852 4.428.01.003a.833.833 0 0 1 .622.646l1.833 9.166a.5.5 0 0 0 .213.318l3.495 2.327-7.137 7.137-2.331-3.491a.5.5 0 0 0-.318-.213l-9.165-1.833a.834.834 0 0 1-.647-.622L3.187 4.193a.833.833 0 0 1-.015-.31L12.1 12.81a3.167 3.167 0 1 0 .707-.707Zm.306 1.052a.453.453 0 0 0 .039-.038 2.167 2.167 0 1 1-.039.039Z" clip-rule="evenodd" fill="currentColor"/>
</svg>
