<svg version="1.1" width="32" height="32" viewBox="0 0 32 32" xmlns="http://www.w3.org/2000/svg">
 <defs>
  <style id="current-color-scheme" type="text/css">.ColorScheme-Text {
        color:#232629;
      }</style>
 </defs>
 <path class="ColorScheme-Text" fill-rule="evenodd" d="M16 4.5a11.5 11.5 0 1 0 0 23 11.5 11.5 0 0 0 0-23ZM7.161 7.161A12.5 12.5 0 1 1 24.84 24.84 12.5 12.5 0 0 1 7.16 7.16ZM16 10.833a.5.5 0 0 1 .5.5V15.5h4.167a.5.5 0 0 1 0 1H16.5v4.167a.5.5 0 0 1-1 0V16.5h-4.167a.5.5 0 0 1 0-1H15.5v-4.167a.5.5 0 0 1 .5-.5Z" clip-rule="evenodd" fill="currentColor"/>
</svg>
