<svg version="1.1" width="32" height="32" viewBox="0 0 32 32" xmlns="http://www.w3.org/2000/svg">
 <defs>
  <style id="current-color-scheme" type="text/css">.ColorScheme-Text {
        color:#232629;
      }</style>
 </defs>
 <path class="ColorScheme-Text" fill-rule="evenodd" d="M10.004 2.5a1.5 1.5 0 0 0-1.5 1.5v6.5h-3.5a2.5 2.5 0 0 0-2.5 2.5v9a2.5 2.5 0 0 0 2.5 2.5h3.5V28a1.5 1.5 0 0 0 1.5 1.5h12a1.5 1.5 0 0 0 1.5-1.5v-3.5h3.5a2.5 2.5 0 0 0 2.5-2.5v-9a2.5 2.5 0 0 0-2.5-2.5h-3.5V4a1.5 1.5 0 0 0-1.5-1.5h-12Zm12.5 8V4a.5.5 0 0 0-.5-.5h-12a.5.5 0 0 0-.5.5v6.5h13Zm0 13.501V21.5h-13V28a.5.5 0 0 0 .5.5h12a.5.5 0 0 0 .5-.5v-3.999Zm-14-.501V21a.5.5 0 0 1 .5-.5h14a.5.5 0 0 1 .5.5v2.5h3.5a1.5 1.5 0 0 0 1.5-1.5v-9a1.5 1.5 0 0 0-1.5-1.5h-22a1.5 1.5 0 0 0-1.5 1.5v9a1.5 1.5 0 0 0 1.5 1.5h3.5Zm13.5-8a.5.5 0 0 0 0 1h2a.5.5 0 1 0 0-1h-2Z" clip-rule="evenodd" fill="currentColor"/>
</svg>
