<svg version="1.1" width="32" height="32" viewBox="0 0 32 32" xmlns="http://www.w3.org/2000/svg">
 <defs>
  <style id="current-color-scheme" type="text/css">.ColorScheme-Text {
        color:#232629;
      }</style>
 </defs>
 <path class="ColorScheme-Text" fill-rule="evenodd" d="M13.333 3.5C7.903 3.5 3.5 7.903 3.5 13.333c0 5.431 4.403 9.834 9.833 9.834 2.536 0 4.847-.96 6.591-2.536l7.722 7.723a.5.5 0 0 0 .708-.708l-7.723-7.722a9.798 9.798 0 0 0 2.536-6.59c0-5.431-4.403-9.834-9.834-9.834ZM4.5 13.333a8.833 8.833 0 1 1 17.667 0 8.833 8.833 0 0 1-17.667 0Z" clip-rule="evenodd" fill="currentColor"/>
</svg>
