<svg xmlns="http://www.w3.org/2000/svg" width="16" height="16" fill="none" viewBox="0 0 16 16">
  <path fill="#BAA18B" fill-rule="evenodd" d="M7.666 1.22c-.402.237-.639.692-.533 1.141.35 1.49.429 3.93-.369 6.98-.825 3.158-2.95 4.539-4.048 4.835a.567.567 0 0 1-.694-.368.53.53 0 0 1 .387-.659c.689-.185 2.53-1.257 3.263-4.065.763-2.915.67-5.186.363-6.49-.223-.948.283-1.835 1.035-2.28.787-.464 1.86-.464 2.714.342.452.426.71 1.144.876 1.893.172.778.266 1.707.31 2.665a38.473 38.473 0 0 1-.17 5.375l-.005.046-1.475 4.976a.567.567 0 0 1-.694.369.53.53 0 0 1-.39-.658l1.45-4.886c.138-1.324.244-3.341.16-5.176-.042-.929-.133-1.794-.287-2.493-.161-.728-.37-1.168-.568-1.355-.462-.435-.955-.411-1.324-.193Z" clip-rule="evenodd"/>
  <path fill="#AE3232" d="M13.233 8.833c.201-.635.997-1.151.702-1.992-.41-1.163-1.515-1.299-1.582-2.068-.066-.769-.889-1.159-1.486-1.375-.886-.322-.402-1.092-1.987-1.35-1.928-.313-1.786.982-3.301 1.148-1.504.165-2.143.325-2.747 1.024-.577.669-.71 2.391-.51 3.094.201.702-.062 1.256-.28 2.192-.219.936.463 1.923.998 2.058.535.133 1.121.198 1.423.967.301.769.693 1.268 1.992 1.415 2.308.263 1.71-.512 2.746-.788 1.037-.276 1.87.263 2.37-.584.81-1.374 1.229-1.173 1.575-2.235.291-.89-.114-.869.087-1.505Z"/>
  <path fill="#CF5959" fill-rule="evenodd" d="M8 11a3 3 0 1 0 0-6 3 3 0 0 0 0 6Zm0 1a4 4 0 1 0 0-8 4 4 0 0 0 0 8Z" clip-rule="evenodd"/>
</svg>
