<svg width="128" height="128" viewBox="0 0 128 128">
  <path fill="#B09090" d="M66.766 8.792a23.234 23.234 0 0 1 22.442 6.014l23.986 23.986a23.234 23.234 0 0 1 6.014 22.442l-8.78 32.765a23.233 23.233 0 0 1-16.429 16.429l-32.765 8.78a23.234 23.234 0 0 1-22.442-6.014L14.806 89.208a23.234 23.234 0 0 1-6.014-22.442l8.78-32.765A23.234 23.234 0 0 1 34 17.57l32.765-8.779Z"/>
  <path fill="#CFC0A2" d="M40 40a8 8 0 0 1 8-8h26l18 18v36a8 8 0 0 1-8 8H48a8 8 0 0 1-8-8V40Z"/>
  <path fill="#FFEECD" d="M40 38a8 8 0 0 1 8-8h26l18 18v36a8 8 0 0 1-8 8H48a8 8 0 0 1-8-8V38Z"/>
  <path fill="#CFC0A2" d="m74 30 18 18H74V30Z"/>
  <path fill="#882727" d="M57 78a1 1 0 0 1 1-1h16a1 1 0 0 1 1 1v24.6a1 1 0 0 1-1.324.946l-7.352-2.521a1 1 0 0 0-.648 0l-7.352 2.521A1 1 0 0 1 57 102.6V78Z"/>
  <path fill="#AE3232" d="M63.93 85.7c1.96.603 3.55 2.991 6.143 2.105 3.585-1.228 4.006-4.545 6.377-4.745 2.37-.2 3.572-2.668 4.24-4.459.992-2.658 3.366-1.206 4.16-5.96.967-5.785-3.026-5.36-3.538-9.905-.51-4.511-1.002-6.428-3.158-8.24-2.061-1.73-7.373-2.13-9.538-1.53-2.166.603-3.873-.185-6.76-.84-2.886-.656-5.93 1.388-6.344 2.994-.411 1.606-.61 3.363-2.981 4.268-2.371.904-3.911 2.08-4.366 5.976-.81 6.926 1.58 5.13 2.43 8.24.851 3.111-.808 5.61 1.803 7.108 4.236 2.431 3.616 3.687 6.889 4.727 2.747.874 2.68-.342 4.64.261h.004Z"/>
  <path fill="#882727" fill-rule="evenodd" d="M66 80c5.523 0 10-4.477 10-10s-4.477-10-10-10-10 4.477-10 10 4.477 10 10 10Zm0 2c6.627 0 12-5.373 12-12s-5.373-12-12-12-12 5.373-12 12 5.373 12 12 12Z" clip-rule="evenodd"/>
</svg>
