<svg width="128" height="128" viewBox="0 0 128 128">
  <path fill="#BAA18B" d="M66.766 8.792a23.234 23.234 0 0 1 22.442 6.014l23.986 23.986a23.234 23.234 0 0 1 6.014 22.442l-8.78 32.765a23.233 23.233 0 0 1-16.429 16.429l-32.765 8.78a23.234 23.234 0 0 1-22.442-6.014L14.806 89.208a23.234 23.234 0 0 1-6.014-22.442l8.78-32.765A23.234 23.234 0 0 1 34 17.57l32.765-8.779Z"/>
  <path fill="#FFF1D6" fill-rule="evenodd" d="M62.762 25.164c-3.238 1.725-5.136 4.999-4.283 8.259 2.057 7.87 2.56 20.991-2.236 37.514C51.38 87.697 38.99 94.67 33.236 96.065a1 1 0 1 1-.472-1.944c5.14-1.246 16.916-7.746 21.558-23.741 4.712-16.234 4.174-28.983 2.222-36.451-1.153-4.41 1.478-8.506 5.277-10.53 3.844-2.048 9.065-2.109 13.421 1.59 2.235 1.898 3.72 5.347 4.723 9.44 1.015 4.14 1.585 9.139 1.85 14.35.529 10.425-.156 21.843-1.028 29.261l-.012.1-8.944 27.173a1 1 0 0 1-1.9-.626l8.882-26.98c.855-7.334 1.524-18.582 1.004-28.827-.261-5.148-.821-10.006-1.795-13.975-.984-4.015-2.348-6.926-4.075-8.392-3.67-3.116-7.993-3.05-11.185-1.349Z" clip-rule="evenodd"/>
  <path fill="#CF5959" d="M95.784 68.583c1.106-3.496 5.483-6.333 3.859-10.957-2.251-6.395-8.333-7.145-8.7-11.374-.366-4.23-4.89-6.372-8.174-7.562-4.874-1.771-2.211-6.006-10.927-7.421-10.606-1.726-9.828 5.396-18.16 6.31-8.27.908-11.785 1.787-15.108 5.633-3.17 3.677-3.904 13.151-2.803 17.014 1.105 3.863-.339 6.908-1.54 12.056-1.202 5.15 2.544 10.58 5.488 11.319 2.945.733 6.167 1.088 7.825 5.317 1.659 4.23 3.814 6.976 10.956 7.788 12.699 1.444 9.404-2.82 15.108-4.337 5.703-1.516 10.284 1.444 13.031-3.214 4.457-7.556 6.758-6.451 8.665-12.288 1.602-4.9-.626-4.782.48-8.278v-.006Z"/>
  <path fill="#AE3232" d="M94.04 68.305c1.038-3.284 5.15-5.949 3.624-10.293-2.114-6.007-7.827-6.711-8.172-10.684-.344-3.974-4.594-5.987-7.679-7.104-4.578-1.664-2.077-5.642-10.265-6.972-9.963-1.62-9.232 5.07-17.059 5.928-7.769.853-11.07 1.68-14.192 5.292-2.978 3.454-3.667 12.354-2.634 15.983 1.039 3.628-.318 6.489-1.446 11.326-1.13 4.836 2.39 9.938 5.156 10.632 2.766.688 5.792 1.022 7.35 4.995 1.558 3.973 3.583 6.553 10.292 7.316 11.93 1.356 8.834-2.649 14.192-4.074 5.358-1.425 9.661 1.356 12.242-3.02 4.186-7.098 6.349-6.06 8.14-11.543 1.505-4.603-.588-4.492.45-7.776v-.006Z"/>
  <path fill="#CF5959" fill-rule="evenodd" d="M66.5 45C55.73 45 47 53.73 47 64.5S55.73 84 66.5 84 86 75.27 86 64.5 77.27 45 66.5 45ZM45 64.5C45 52.626 54.626 43 66.5 43S88 52.626 88 64.5 78.374 86 66.5 86 45 76.374 45 64.5Z" clip-rule="evenodd"/>
  <path fill="#CF5959" fill-rule="evenodd" d="M61.97 47.592A17.524 17.524 0 0 1 66.5 47a1 1 0 1 1 0 2c-1.39 0-2.735.183-4.014.525a1 1 0 0 1-.516-1.933Zm7.836.708a1 1 0 0 1 1.224-.708 17.483 17.483 0 0 1 7.844 4.534 1 1 0 0 1-1.414 1.414 15.483 15.483 0 0 0-6.946-4.015 1 1 0 0 1-.708-1.225ZM55.54 52.126a1 1 0 0 1 0 1.414 15.483 15.483 0 0 0-4.015 6.946 1 1 0 0 1-1.933-.516 17.483 17.483 0 0 1 4.534-7.844 1 1 0 0 1 1.414 0Zm26.643 7.136a1 1 0 0 1 1.225.708c.386 1.446.592 2.965.592 4.53a1 1 0 1 1-2 0c0-1.39-.183-2.735-.525-4.014a1 1 0 0 1 .708-1.224ZM50 63.5a1 1 0 0 1 1 1c0 1.39.183 2.735.525 4.014a1 1 0 0 1-1.933.516A17.524 17.524 0 0 1 49 64.5a1 1 0 0 1 1-1Zm32.7 4.306a1 1 0 0 1 .708 1.224 17.483 17.483 0 0 1-4.534 7.844 1 1 0 0 1-1.414-1.414 15.483 15.483 0 0 0 4.016-6.946 1 1 0 0 1 1.224-.708ZM54.126 75.46a1 1 0 0 1 1.414 0 15.483 15.483 0 0 0 6.946 4.016 1 1 0 0 1-.516 1.932 17.483 17.483 0 0 1-7.844-4.534 1 1 0 0 1 0-1.414Zm17.612 4.723a1 1 0 0 1-.708 1.225A17.524 17.524 0 0 1 66.5 82a1 1 0 1 1 0-2c1.39 0 2.735-.183 4.014-.525a1 1 0 0 1 1.224.708Z" clip-rule="evenodd"/>
</svg>
