<svg xmlns="http://www.w3.org/2000/svg" width="16" height="16" fill="none" viewBox="0 0 16 16">
  <g clip-path="url(#a)">
    <path fill="#882727" d="M4 7.25A.25.25 0 0 1 4.25 7h6.5a.25.25 0 0 1 .25.25v8.416a.25.25 0 0 1-.32.24l-3.11-.914a.25.25 0 0 0-.14 0l-3.11.914a.25.25 0 0 1-.32-.24V7.25Z"/>
    <path fill="#AE3232" d="M6.597 12.17c.689.217 1.248 1.08 2.158.76 1.26-.444 1.408-1.642 2.24-1.714.834-.072 1.256-.963 1.49-1.61.35-.96 1.183-.436 1.462-2.152.34-2.09-1.063-1.936-1.243-3.577-.179-1.63-.352-2.322-1.11-2.976-.724-.624-2.59-.769-3.35-.552C7.482.567 6.882.282 5.868.045 4.854-.19 3.785.547 3.639 1.127c-.144.58-.214 1.214-1.047 1.54-.833.327-1.374.752-1.534 2.159-.284 2.501.555 1.852.854 2.975.299 1.124-.284 2.026.633 2.567 1.489.878 1.27 1.332 2.42 1.707.966.316.942-.123 1.631.095h.001Z"/>
    <path fill="#882727" fill-rule="evenodd" d="M7.5 10a3.5 3.5 0 1 0 0-7 3.5 3.5 0 0 0 0 7Zm0 1a4.5 4.5 0 1 0 0-9 4.5 4.5 0 0 0 0 9Z" clip-rule="evenodd"/>
  </g>
  <defs>
    <clipPath id="a">
      <path fill="#fff" d="M0 0h16v16H0z"/>
    </clipPath>
  </defs>
</svg>
