<svg width="32" height="32" viewBox="0 0 32 32">
  <path fill="#B09090" d="M16.692 2.198a5.809 5.809 0 0 1 5.61 1.503L28.3 9.698a5.808 5.808 0 0 1 1.503 5.61L27.607 23.5a5.809 5.809 0 0 1-4.107 4.107l-8.191 2.195a5.808 5.808 0 0 1-5.611-1.503L3.7 22.302a5.809 5.809 0 0 1-1.503-5.61L4.393 8.5A5.809 5.809 0 0 1 8.5 4.393l8.192-2.195Z"/>
  <path fill="#CFC0A2" d="M9 12a2 2 0 0 1 2-2h7.808L24 14.645V24a2 2 0 0 1-2 2H11a2 2 0 0 1-2-2V12Z"/>
  <path fill="#FFEECD" d="M9 8a2 2 0 0 1 2-2h8l5 5v12a2 2 0 0 1-2 2H11a2 2 0 0 1-2-2V8Z"/>
  <path fill="#CFC0A2" d="m19 6 5 5h-5V6Z"/>
  <path fill="#882727" d="M13 18.25a.25.25 0 0 1 .25-.25h6.5a.25.25 0 0 1 .25.25v8.416a.25.25 0 0 1-.32.24l-3.11-.914a.25.25 0 0 0-.14 0l-3.11.914a.25.25 0 0 1-.32-.24V18.25Z"/>
  <path fill="#AE3232" d="M15.597 23.17c.689.217 1.248 1.08 2.158.76 1.26-.444 1.408-1.642 2.24-1.714.834-.072 1.256-.963 1.49-1.61.35-.96 1.183-.436 1.462-2.152.34-2.09-1.063-1.936-1.243-3.577-.179-1.63-.352-2.322-1.11-2.976-.724-.624-2.59-.769-3.35-.552-.761.217-1.361-.067-2.375-.304-1.014-.236-2.084.502-2.23 1.082-.144.58-.214 1.214-1.047 1.54-.833.328-1.374.752-1.534 2.159-.284 2.501.555 1.852.854 2.976.299 1.123-.284 2.025.633 2.566 1.489.878 1.27 1.332 2.42 1.707.966.316.943-.123 1.631.095h.001Z"/>
  <path fill="#882727" fill-rule="evenodd" d="M16.5 21a3.5 3.5 0 1 0 0-7 3.5 3.5 0 0 0 0 7Zm0 1a4.5 4.5 0 1 0 0-9 4.5 4.5 0 0 0 0 9Z" clip-rule="evenodd"/>
</svg>
