<svg width="32" height="32" viewBox="0 0 32 32">
  <path fill="#BAA18B" d="M16.692 2.198a5.809 5.809 0 0 1 5.61 1.503L28.3 9.698a5.808 5.808 0 0 1 1.503 5.61L27.607 23.5a5.809 5.809 0 0 1-4.107 4.107l-8.191 2.195a5.808 5.808 0 0 1-5.611-1.503L3.7 22.302a5.809 5.809 0 0 1-1.503-5.61L4.393 8.5A5.809 5.809 0 0 1 8.5 4.393l8.192-2.195Z"/>
  <path fill="#FFF1D6" fill-rule="evenodd" d="M18.062 6.108c-1.669-1.521-3.824.095-3.448 1.638.524 2.152.646 5.709-.56 10.171-1.238 4.574-4.4 6.511-5.928 6.909a.5.5 0 1 1-.252-.968c1.195-.31 4.074-1.988 5.214-6.202 1.17-4.326 1.032-7.71.554-9.673-.627-2.573 2.75-4.75 5.093-2.614.617.561.999 1.548 1.25 2.65.259 1.128.402 2.483.468 3.887.133 2.81-.039 5.885-.258 7.884l-.005.047-2.242 7.31a.5.5 0 1 1-.956-.294l2.215-7.219c.212-1.96.377-4.955.247-7.68-.065-1.375-.204-2.665-.443-3.712-.245-1.073-.575-1.793-.95-2.134Z" clip-rule="evenodd"/>
  <path fill="#CF5959" d="M23.85 17.25c.302-.954 1.496-1.727 1.052-2.988-.613-1.744-2.272-1.949-2.372-3.102-.1-1.154-1.334-1.738-2.23-2.063-1.329-.483-.602-1.638-2.98-2.024-2.892-.47-2.68 1.472-4.952 1.721-2.256.248-3.214.488-4.12 1.537-.865 1.002-1.065 3.586-.765 4.64.301 1.053-.092 1.884-.42 3.288-.328 1.404.694 2.885 1.497 3.087.803.2 1.681.296 2.134 1.45.452 1.153 1.04 1.902 2.988 2.124 3.463.393 2.565-.77 4.12-1.183 1.556-.414 2.805.394 3.554-.877 1.216-2.06 1.843-1.759 2.363-3.35.437-1.337-.17-1.305.131-2.259v-.001Z"/>
  <path fill="#AE3232" d="M22.978 17.111c.268-.848 1.33-1.535.935-2.656-.545-1.55-2.02-1.732-2.108-2.758-.09-1.025-1.186-1.544-1.982-1.833-1.182-.43-.536-1.456-2.65-1.799-2.57-.418-2.382 1.308-4.402 1.53-2.005.22-2.857.433-3.662 1.366-.769.89-.946 3.188-.68 4.124.268.936-.082 1.675-.373 2.923s.617 2.565 1.33 2.744c.714.177 1.495.264 1.897 1.289.402 1.025.925 1.69 2.656 1.888 3.079.35 2.28-.684 3.663-1.052 1.383-.367 2.493.35 3.159-.779 1.08-1.832 1.638-1.564 2.1-2.979.39-1.188-.151-1.159.117-2.007Z"/>
  <path fill="#CF5959" fill-rule="evenodd" d="M16 11.5a4.5 4.5 0 1 0 0 9 4.5 4.5 0 0 0 0-9ZM10.5 16a5.5 5.5 0 1 1 11 0 5.5 5.5 0 0 1-11 0Z" clip-rule="evenodd"/>
</svg>
