<svg width="32" height="32" viewBox="0 0 32 32" fill="none" xmlns="http://www.w3.org/2000/svg">
<path fill-rule="evenodd" clip-rule="evenodd" d="M4.42945 2.21865C4.12407 2.14482 3.80484 2.1507 3.50238 2.23574C3.19993 2.32078 2.9244 2.48212 2.70225 2.70428C2.48009 2.92644 2.31875 3.20196 2.23371 3.50441C2.14867 3.80687 2.14269 4.12612 2.21652 4.43151L6.64718 21.2952C6.72977 21.633 6.90675 21.9405 7.15751 22.1815C7.40958 22.4238 7.72571 22.589 8.06857 22.6576L17.031 24.4503L19.5854 28.2769C19.6685 28.4015 19.8031 28.4822 19.9521 28.4969C20.1011 28.5116 20.2489 28.4588 20.3548 28.3529L28.3548 20.3529C28.4607 20.2469 28.5136 20.099 28.4988 19.9499C28.484 19.8008 28.4031 19.6662 28.2783 19.5832L24.4483 17.0327L22.6556 8.07057C22.587 7.72771 22.4218 7.41161 22.1795 7.15954C21.9384 6.90878 21.631 6.7318 21.2932 6.64921L4.43903 2.22096L4.42945 2.21865ZM12.8074 12.1023L3.88076 3.17568C3.98357 3.16099 4.08854 3.16561 4.19022 3.18963L21.0435 7.61767L21.0533 7.62003C21.2078 7.65731 21.3484 7.738 21.4586 7.85258C21.5687 7.96716 21.6438 8.11087 21.675 8.26672L23.5083 17.4321C23.5344 17.5622 23.611 17.6766 23.7215 17.7502L27.2162 20.0773L20.0787 27.2148L17.7478 23.723C17.6742 23.6128 17.5599 23.5363 17.43 23.5104L8.26466 21.677C8.10881 21.6459 7.96513 21.5708 7.85055 21.4606C7.73597 21.3505 7.65538 21.2098 7.6181 21.0553L3.1876 4.19225C3.16358 4.09057 3.15896 3.9856 3.17365 3.88279L12.1 12.8091C11.7208 13.3311 11.4973 13.9734 11.4973 14.668C11.4973 16.4169 12.915 17.8346 14.6639 17.8346C16.4128 17.8346 17.8306 16.4169 17.8306 14.668C17.8306 12.9191 16.4128 11.5013 14.6639 11.5013C13.9704 11.5013 13.329 11.7242 12.8074 12.1023ZM13.1134 13.1546C13.1202 13.1485 13.1269 13.1421 13.1335 13.1355C13.1399 13.1291 13.1462 13.1225 13.1522 13.1158C13.5426 12.7355 14.0759 12.5013 14.6639 12.5013C15.8605 12.5013 16.8306 13.4713 16.8306 14.668C16.8306 15.8646 15.8605 16.8346 14.6639 16.8346C13.4673 16.8346 12.4973 15.8646 12.4973 14.668C12.4973 14.0791 12.7322 13.5451 13.1134 13.1546Z" fill="#232629"/>
</svg>
