<svg width="16" height="16" viewBox="0 0 16 16" fill="none" xmlns="http://www.w3.org/2000/svg">
<path fill-rule="evenodd" clip-rule="evenodd" d="M7.5 13.3333C7.5 13.0572 7.72386 12.8333 8 12.8333H14C14.2761 12.8333 14.5 13.0572 14.5 13.3333C14.5 13.6095 14.2761 13.8333 14 13.8333H8C7.72386 13.8333 7.5 13.6095 7.5 13.3333Z" fill="#232629"/>
<path fill-rule="evenodd" clip-rule="evenodd" d="M11.918 1.50018C11.4101 1.50018 10.9229 1.70195 10.5638 2.06111L2.55644 10.0684C2.33855 10.2862 2.17903 10.5555 2.09268 10.8513L1.534 12.766C1.49217 12.9094 1.48966 13.0614 1.52674 13.2062C1.56381 13.3509 1.63911 13.483 1.74474 13.5886C1.85038 13.6942 1.98247 13.7695 2.12718 13.8066C2.27189 13.8437 2.42397 13.8411 2.56738 13.7993L4.4818 13.2407C4.7779 13.1545 5.04749 12.9949 5.26557 12.7769L13.2722 4.76954C13.6314 4.41038 13.8332 3.92326 13.8332 3.41533C13.8332 2.9074 13.6314 2.42027 13.2722 2.06111C12.9131 1.70195 12.4259 1.50018 11.918 1.50018ZM11.918 2.50018C11.6753 2.50018 11.4425 2.59659 11.2709 2.76822L3.26355 10.7756C3.16449 10.8746 3.09188 10.997 3.05262 11.1315L2.57914 12.7542L4.20195 12.2807C4.33653 12.2415 4.45931 12.1689 4.55844 12.0698L12.5651 4.06246C12.7367 3.89083 12.8332 3.65805 12.8332 3.41533C12.8332 3.17262 12.7367 2.93984 12.5651 2.76822C12.3935 2.59659 12.1607 2.50018 11.918 2.50018Z" fill="#232629"/>
</svg>
