<svg width="32" height="32" viewBox="0 0 32 32" fill="none" xmlns="http://www.w3.org/2000/svg">
<path fill-rule="evenodd" clip-rule="evenodd" d="M10.0033 2.49944C9.60552 2.49944 9.22399 2.65748 8.94269 2.93878C8.66138 3.22009 8.50335 3.60162 8.50335 3.99944V10.4994H5.00335C4.34031 10.4994 3.70442 10.7628 3.23558 11.2317C2.76674 11.7005 2.50335 12.3364 2.50335 12.9994V21.9994C2.50335 22.6625 2.76674 23.2984 3.23558 23.7672C3.70442 24.236 4.34031 24.4994 5.00335 24.4994H8.50335V27.9994C8.50335 28.3973 8.66138 28.7788 8.94269 29.0601C9.22399 29.3414 9.60552 29.4994 10.0033 29.4994H22.0033C22.4012 29.4994 22.7827 29.3414 23.064 29.0601C23.3453 28.7788 23.5033 28.3973 23.5033 27.9994V24.4994H27.0033C27.6664 24.4994 28.3023 24.236 28.7711 23.7672C29.24 23.2984 29.5033 22.6625 29.5033 21.9994V12.9994C29.5033 12.3364 29.24 11.7005 28.7711 11.2317C28.3023 10.7628 27.6664 10.4994 27.0033 10.4994H23.5033V3.99944C23.5033 3.60162 23.3453 3.22009 23.064 2.93878C22.7827 2.65748 22.4012 2.49944 22.0033 2.49944H10.0033ZM22.5033 10.4994V3.99944C22.5033 3.86683 22.4507 3.73966 22.3569 3.64589C22.2631 3.55212 22.136 3.49944 22.0033 3.49944H10.0033C9.87074 3.49944 9.74356 3.55212 9.64979 3.64589C9.55603 3.73966 9.50335 3.86684 9.50335 3.99944V10.4994H22.5033ZM22.5033 24.0008C22.5033 24.0004 22.5033 23.9999 22.5033 23.9994C22.5033 23.999 22.5033 23.9985 22.5033 23.998V21.4994H9.50335V23.9994V27.9994C9.50335 28.1321 9.55603 28.2592 9.64979 28.353C9.74356 28.4468 9.87074 28.4994 10.0033 28.4994H22.0033C22.136 28.4994 22.2631 28.4468 22.3569 28.353C22.4507 28.2592 22.5033 28.1321 22.5033 27.9994V24.0008ZM8.50335 23.4994V20.9994C8.50335 20.7233 8.7272 20.4994 9.00335 20.4994H23.0033C23.2795 20.4994 23.5033 20.7233 23.5033 20.9994V23.4994H27.0033C27.4012 23.4994 27.7827 23.3414 28.064 23.0601C28.3453 22.7788 28.5033 22.3973 28.5033 21.9994V12.9994C28.5033 12.6016 28.3453 12.2201 28.064 11.9388C27.7827 11.6575 27.4012 11.4994 27.0033 11.4994H23.0033H9.00335H5.00335C4.60552 11.4994 4.22399 11.6575 3.94269 11.9388C3.66138 12.2201 3.50335 12.6016 3.50335 12.9994V21.9994C3.50335 22.3973 3.66138 22.7788 3.94269 23.0601C4.22399 23.3414 4.60552 23.4994 5.00335 23.4994H8.50335ZM22.0033 15.4994C21.7272 15.4994 21.5033 15.7233 21.5033 15.9994C21.5033 16.2756 21.7272 16.4994 22.0033 16.4994H24.0033C24.2795 16.4994 24.5033 16.2756 24.5033 15.9994C24.5033 15.7233 24.2795 15.4994 24.0033 15.4994H22.0033Z" fill="#D8D8D8"/>
</svg>
